<?xml version="1.0" encoding="UTF-8" standalone="no"?>
<svg width="96px" height="65px" viewBox="0 0 96 65" version="1.1" xmlns="http://www.w3.org/2000/svg" xmlns:xlink="http://www.w3.org/1999/xlink" xmlns:sketch="http://www.bohemiancoding.com/sketch/ns">
    <!-- Generator: Sketch 3.4.4 (17249) - http://www.bohemiancoding.com/sketch -->
    <title>faf_logo</title>
    <desc>Created with Sketch.</desc>
    <defs></defs>
    <g id="Page-1" stroke="none" stroke-width="1" fill="none" fill-rule="evenodd" sketch:type="MSPage">
        <g id="Desktop-HD-Copy-2" sketch:type="MSArtboardGroup" transform="translate(-492.000000, -763.000000)" fill="#000000">
            <path d="M519.80691,807.670478 C519.957174,809.33604 520.160804,810.90905 520.435953,812.284797 C520.793765,814.073854 521.078043,821.383429 527.712318,823.860968 C533.296636,825.946405 538.837318,824.839484 549.212318,819.485968 C559.587318,814.132453 565.234424,812.284795 568.330972,812.284795 C574.330972,812.284795 578.705972,818.534795 578.705972,818.534795 C578.705972,818.534795 573.790931,814.132452 568.540933,814.132452 C563.290934,814.132452 547.665933,823.007452 547.665933,823.007452 C547.665933,823.007452 533.665931,830.757452 524.415933,826.507452 C518.147079,823.627167 516.184127,813.742613 515.569998,807.670478 L501.713093,807.670478 C500.909398,809.390941 499.305581,813.234985 499.305581,816.513799 C499.305581,820.888799 497.033971,824.194673 495.680581,821.383428 C493.833117,817.545899 496.101197,811.745483 498.264392,807.644283 C497.258426,807.530418 493.013226,807.159668 492.352923,808.920478 C491.602923,810.920478 491.477923,803.920478 497.977923,803.920478 L500.44404,803.920478 C500.908597,803.201012 501.205972,802.784795 501.205972,802.784795 C501.205972,802.784795 510.580973,785.513799 514.585855,779.763799 C518.590738,774.013799 519.412027,778.763799 519.412027,778.763799 L519.412027,791.138799 C519.412027,793.972375 519.325294,799.010605 519.556311,803.920478 L519.983294,803.920478 L519.983294,807.670478 L519.80691,807.670478 Z M503.593238,803.920478 C506.755996,797.696571 514.096481,783.493722 514.585855,784.763799 C515.210856,786.38587 515.290933,802.757452 515.290933,802.757452 C515.290933,802.757452 515.288209,803.182389 515.313321,803.920478 L503.593238,803.920478 Z M520.5,774.920478 C524.642136,774.920478 528,772.458044 528,769.420478 C528,766.382912 524.642136,763.920478 520.5,763.920478 C516.357864,763.920478 513,766.382912 513,769.420478 C513,772.458044 516.357864,774.920478 520.5,774.920478 Z M522.5,770.920478 C523.880712,770.920478 525,770.025047 525,768.920478 C525,767.815908 523.880712,766.920478 522.5,766.920478 C521.119288,766.920478 520,767.815908 520,768.920478 C520,770.025047 521.119288,770.920478 522.5,770.920478 Z M530.120361,785.103339 C527.623047,784.792537 528,784.230037 528,784.230037 C528,784.230037 527.941406,783.928546 528.566406,784.079291 C529.191406,784.230037 534.039978,784.167995 535.875,783.230037 C538.25122,782.015448 541.46997,781.984198 545.375,783.480037 C549.28003,784.975875 555.625,779.855037 555.625,779.855037 C555.625,779.855037 560,775.355037 566.25,775.980037 C572.5,776.605037 577.135742,778.355037 577.135742,778.355037 C577.135742,778.355037 582.506836,781.105037 584.881836,781.105037 C587.256836,781.105037 589.516113,783.480037 586.135742,783.480037 C582.755371,783.480037 577.885742,781.730037 577.010742,782.730037 C576.135742,783.730037 573.135742,783.480037 572.135742,786.980037 C571.135742,790.480037 568.885742,795.980037 568.885742,795.980037 C568.885742,795.980037 568.135742,803.609919 568.885742,807.234919 C569.635742,810.859919 558.756836,799.855037 558.756836,797.355037 C558.756836,794.855036 559.135742,785.605037 558.010742,785.605037 C556.885742,785.605037 550.634278,785.644843 548.253907,786.639472 C547.100985,787.121216 544.663382,787.807149 542.535156,788.108222 C541.145293,788.304841 538.124878,788.108222 536.437744,787.329291 C534.360008,786.370024 532.617676,785.414141 530.120361,785.103339 Z" id="faf_logo" sketch:type="MSShapeGroup"></path>
        </g>
    </g>
</svg>