<?xml version="1.0" encoding="UTF-8" standalone="no"?>
<svg width="96px" height="64px" viewBox="0 0 96 64" version="1.1" xmlns="http://www.w3.org/2000/svg" xmlns:xlink="http://www.w3.org/1999/xlink" xmlns:sketch="http://www.bohemiancoding.com/sketch/ns">
    <!-- Generator: Sketch 3.4.4 (17249) - http://www.bohemiancoding.com/sketch -->
    <title>faf_logo_white</title>
    <desc>Created with Sketch.</desc>
    <defs></defs>
    <g id="Page-1" stroke="none" stroke-width="1" fill="none" fill-rule="evenodd" sketch:type="MSPage">
        <g id="Desktop-HD-Copy-2" sketch:type="MSArtboardGroup" transform="translate(-492.000000, -695.000000)" fill="#FFFFFF">
            <path d="M519.80691,738.75 C519.957174,740.415562 520.160804,741.988572 520.435953,743.364319 C520.793765,745.153376 521.078043,752.462952 527.712318,754.940491 C533.296636,757.025928 538.837318,755.919006 549.212318,750.565491 C559.587318,745.211975 565.234424,743.364318 568.330972,743.364318 C574.330972,743.364318 578.705972,749.614318 578.705972,749.614318 C578.705972,749.614318 573.790931,745.211974 568.540933,745.211974 C563.290934,745.211974 547.665933,754.086974 547.665933,754.086974 C547.665933,754.086974 533.665931,761.836974 524.415933,757.586974 C518.147079,754.706689 516.184127,744.822136 515.569998,738.75 L501.713093,738.75 C500.909398,740.470463 499.305581,744.314508 499.305581,747.593322 C499.305581,751.968322 497.033971,755.274195 495.680581,752.462951 C493.833117,748.625421 496.101197,742.825005 498.264392,738.723805 C497.258426,738.609941 493.013226,738.23919 492.352923,740 C491.602923,742 491.477923,735 497.977923,735 L500.44404,735 C500.908597,734.280534 501.205972,733.864318 501.205972,733.864318 C501.205972,733.864318 510.580973,716.593322 514.585855,710.843322 C518.590738,705.093322 519.412027,709.843322 519.412027,709.843322 L519.412027,722.218322 C519.412027,725.051897 519.325294,730.090128 519.556311,735 L519.983294,735 L519.983294,738.75 L519.80691,738.75 Z M503.593238,735 C506.755996,728.776093 514.096481,714.573244 514.585855,715.843321 C515.210856,717.465392 515.290933,733.836974 515.290933,733.836974 C515.290933,733.836974 515.288209,734.261912 515.313321,735 L503.593238,735 Z M520.5,706 C524.642136,706 528,703.537566 528,700.5 C528,697.462434 524.642136,695 520.5,695 C516.357864,695 513,697.462434 513,700.5 C513,703.537566 516.357864,706 520.5,706 Z M522.5,702 C523.880712,702 525,701.104569 525,700 C525,698.895431 523.880712,698 522.5,698 C521.119288,698 520,698.895431 520,700 C520,701.104569 521.119288,702 522.5,702 Z M530.120361,716.182861 C527.623047,715.872059 528,715.309559 528,715.309559 C528,715.309559 527.941406,715.008068 528.566406,715.158813 C529.191406,715.309559 534.039978,715.247518 535.875,714.309559 C538.25122,713.094971 541.46997,713.063721 545.375,714.559559 C549.28003,716.055397 555.625,710.934559 555.625,710.934559 C555.625,710.934559 560,706.434559 566.25,707.059559 C572.5,707.684559 577.135742,709.434559 577.135742,709.434559 C577.135742,709.434559 582.506836,712.184559 584.881836,712.184559 C587.256836,712.184559 589.516113,714.559559 586.135742,714.559559 C582.755371,714.559559 577.885742,712.809559 577.010742,713.809559 C576.135742,714.809559 573.135742,714.559559 572.135742,718.059559 C571.135742,721.559559 568.885742,727.059559 568.885742,727.059559 C568.885742,727.059559 568.135742,734.689442 568.885742,738.314442 C569.635742,741.939442 558.756836,730.934559 558.756836,728.434559 C558.756836,725.934559 559.135742,716.684559 558.010742,716.684559 C556.885742,716.684559 550.634278,716.724365 548.253907,717.718994 C547.100985,718.200738 544.663382,718.886671 542.535156,719.187744 C541.145293,719.384363 538.124878,719.187744 536.437744,718.408813 C534.360008,717.449546 532.617676,716.493664 530.120361,716.182861 Z" id="faf_logo_white" sketch:type="MSShapeGroup"></path>
        </g>
    </g>
</svg>