<svg xmlns="http://www.w3.org/2000/svg" width="96" height="65"><path fill="#000" fill-rule="evenodd" d="M27.807 44.67c.15 1.666.354 3.239.629 4.615.358 1.789.642 9.098 7.276 11.576 5.585 2.085 11.125.978 21.5-4.375 10.375-5.354 16.022-7.201 19.119-7.201 6 0 10.375 6.25 10.375 6.25s-4.915-4.403-10.165-4.403-20.875 8.875-20.875 8.875-14 7.75-23.25 3.5c-6.269-2.88-8.232-12.764-8.846-18.837H9.713c-.804 1.72-2.407 5.565-2.407 8.844 0 4.375-2.272 7.68-3.625 4.87-1.848-3.838.42-9.639 2.583-13.74-1.006-.114-5.25-.484-5.911 1.276-.75 2-.875-5 5.625-5h2.466c.465-.719.762-1.135.762-1.135s9.375-17.271 13.38-23.021 4.826-1 4.826-1v12.375c0 2.833-.087 7.872.144 12.781h.427v3.75zm-16.214-3.75c3.163-6.223 10.503-20.426 10.993-19.156.625 1.622.705 17.993.705 17.993s-.003.425.022 1.163zm16.907-29c4.142 0 7.5-2.462 7.5-5.5S32.642.92 28.5.92 21 3.383 21 6.42s3.358 5.5 7.5 5.5m2-4c1.38 0 2.5-.895 2.5-2s-1.12-2-2.5-2-2.5.896-2.5 2 1.12 2 2.5 2m7.62 14.183c-2.497-.31-2.12-.873-2.12-.873s-.059-.301.566-.15c.625.15 5.474.088 7.309-.85 2.376-1.215 5.595-1.246 9.5.25s10.25-3.625 10.25-3.625S68 12.355 74.25 12.98s10.886 2.375 10.886 2.375 5.37 2.75 7.746 2.75c2.375 0 4.634 2.375 1.254 2.375s-8.25-1.75-9.125-.75-3.875.75-4.875 4.25-3.25 9-3.25 9-.75 7.63 0 11.255-10.13-7.38-10.13-9.88.38-11.75-.745-11.75-7.377.04-9.757 1.034c-1.153.482-3.59 1.168-5.719 1.47-1.39.196-4.41 0-6.097-.78-2.078-.959-3.82-1.915-6.318-2.226"/></svg>