<svg xmlns="http://www.w3.org/2000/svg" width="96" height="64"><path fill="#FFF" fill-rule="evenodd" d="M27.807 43.75c.15 1.666.354 3.239.629 4.614.358 1.79.642 9.099 7.276 11.576 5.585 2.086 11.125.979 21.5-4.375 10.375-5.353 16.022-7.2 19.119-7.2 6 0 10.375 6.25 10.375 6.25s-4.915-4.403-10.165-4.403-20.875 8.875-20.875 8.875-14 7.75-23.25 3.5c-6.269-2.88-8.232-12.765-8.846-18.837H9.713c-.804 1.72-2.407 5.565-2.407 8.843 0 4.375-2.272 7.681-3.625 4.87-1.848-3.838.42-9.638 2.583-13.74C5.258 43.61 1.014 43.24.353 45c-.75 2-.875-5 5.625-5h2.466c.465-.72.762-1.136.762-1.136s9.375-17.27 13.38-23.02 4.826-1 4.826-1v12.374c0 2.834-.087 7.872.144 12.782h.427v3.75zM11.593 40c3.163-6.224 10.503-20.427 10.993-19.157.625 1.622.705 17.994.705 17.994s-.003.425.022 1.163zM28.5 11c4.142 0 7.5-2.462 7.5-5.5S32.642 0 28.5 0 21 2.462 21 5.5s3.358 5.5 7.5 5.5m2-4c1.38 0 2.5-.895 2.5-2s-1.12-2-2.5-2-2.5.895-2.5 2 1.12 2 2.5 2m7.62 14.183c-2.497-.31-2.12-.873-2.12-.873s-.059-.302.566-.151c.625.15 5.474.089 7.309-.85 2.376-1.214 5.595-1.245 9.5.25s10.25-3.624 10.25-3.624S68 11.435 74.25 12.06s10.886 2.375 10.886 2.375 5.37 2.75 7.746 2.75c2.375 0 4.634 2.375 1.254 2.375s-8.25-1.75-9.125-.75-3.875.75-4.875 4.25-3.25 9-3.25 9-.75 7.63 0 11.254c.75 3.625-10.13-7.38-10.13-9.88s.38-11.75-.745-11.75-7.377.04-9.757 1.035c-1.153.482-3.59 1.168-5.719 1.469-1.39.196-4.41 0-6.097-.78-2.078-.958-3.82-1.914-6.318-2.225"/></svg>